<?xml version="1.0" encoding="UTF-8" standalone="no"?>
<svg
   xmlns:dc="http://purl.org/dc/elements/1.1/"
   xmlns:cc="http://creativecommons.org/ns#"
   xmlns:rdf="http://www.w3.org/1999/02/22-rdf-syntax-ns#"
   xmlns:svg="http://www.w3.org/2000/svg"
   xmlns="http://www.w3.org/2000/svg"
   xmlns:sodipodi="http://sodipodi.sourceforge.net/DTD/sodipodi-0.dtd"
   xmlns:inkscape="http://www.inkscape.org/namespaces/inkscape"
   width="960"
   height="960"
   id="svg2"
   version="1.1"
   inkscape:version="0.91 r13725"
   sodipodi:docname="semantics.svg">
  <metadata
     id="metadata502">
    <rdf:RDF>
      <cc:Work
         rdf:about="">
        <dc:format>image/svg+xml</dc:format>
        <dc:type
           rdf:resource="http://purl.org/dc/dcmitype/StillImage" />
      </cc:Work>
    </rdf:RDF>
  </metadata>
  <defs
     id="defs500" />
  <sodipodi:namedview
     pagecolor="#ffffff"
     bordercolor="#666666"
     borderopacity="1"
     objecttolerance="10"
     gridtolerance="10"
     guidetolerance="10"
     inkscape:pageopacity="0"
     inkscape:pageshadow="2"
     inkscape:window-width="1538"
     inkscape:window-height="973"
     id="namedview498"
     showgrid="false"
     inkscape:zoom="0.9"
     inkscape:cx="501.59852"
     inkscape:cy="504.46048"
     inkscape:window-x="0"
     inkscape:window-y="0"
     inkscape:window-maximized="0"
     inkscape:current-layer="g4" />
  <g
     transform="translate(480,480)"
     id="g4">
    <g
       id="g8">
      <path
         inkscape:connector-curvature="0"
         id="path10"
         style="fill:#000000;stroke:#000000"
         d="M 0,-440 A 440,440 0 0 1 428.24697,101.01749 L 399.04831,94.129933 A 410,410 0 0 0 0,-410 Z" />
      <g
         id="g12"
         transform="matrix(0,-1,1,0,0,-440)"
         class="group-tick">
        <line
           y2="0"
           y1="0"
           x1="0"
           id="line14"
           x2="6" />
        <text
           id="text16"
           dy="0"
           x="8">0k</text>
      </g>
      <g
         id="g18"
         transform="matrix(0.06079434,-0.99815031,0.99815031,0.06079434,26.74951,-439.18614)"
         class="group-tick">
        <line
           y2="0"
           y1="0"
           x1="0"
           id="line20"
           x2="6" />
      </g>
      <g
         id="g22"
         transform="matrix(0.12136378,-0.9926081,0.9926081,0.12136378,53.400064,-436.74756)"
         class="group-tick">
        <line
           y2="0"
           y1="0"
           x1="0"
           id="line24"
           x2="6" />
      </g>
      <g
         id="g26"
         transform="matrix(0.18148425,-0.98339385,0.98339385,0.18148425,79.853072,-432.69329)"
         class="group-tick">
        <line
           y2="0"
           y1="0"
           x1="0"
           id="line28"
           x2="6" />
      </g>
      <g
         id="g30"
         transform="matrix(0.24093335,-0.97054166,0.97054166,0.24093335,106.01067,-427.03833)"
         class="group-tick">
        <line
           y2="0"
           y1="0"
           x1="0"
           id="line32"
           x2="6" />
      </g>
      <g
         id="g34"
         transform="matrix(0.29949114,-0.95409908,0.95409908,0.29949114,131.7761,-419.8036)"
         class="group-tick">
        <line
           y2="0"
           y1="0"
           x1="0"
           id="line36"
           x2="6" />
        <text
           id="text38"
           dy="0"
           x="8">5k</text>
      </g>
      <g
         id="g40"
         transform="matrix(0.356941,-0.93412693,0.93412693,0.356941,157.05404,-411.01585)"
         class="group-tick">
        <line
           y2="0"
           y1="0"
           x1="0"
           id="line42"
           x2="6" />
      </g>
      <g
         id="g44"
         transform="matrix(0.4130704,-0.9106991,0.9106991,0.4130704,181.75098,-400.7076)"
         class="group-tick">
        <line
           y2="0"
           y1="0"
           x1="0"
           id="line46"
           x2="6" />
      </g>
      <g
         id="g48"
         transform="matrix(0.4676717,-0.88390225,0.88390225,0.4676717,205.77555,-388.91699)"
         class="group-tick">
        <line
           y2="0"
           y1="0"
           x1="0"
           id="line50"
           x2="6" />
      </g>
      <g
         id="g52"
         transform="matrix(0.52054291,-0.85383551,0.85383551,0.52054291,229.03888,-375.68762)"
         class="group-tick">
        <line
           y2="0"
           y1="0"
           x1="0"
           id="line54"
           x2="6" />
      </g>
      <g
         id="g56"
         transform="matrix(0.57148844,-0.82061012,0.82061012,0.57148844,251.45491,-361.06845)"
         class="group-tick">
        <line
           y2="0"
           y1="0"
           x1="0"
           id="line58"
           x2="6" />
        <text
           id="text60"
           dy="0"
           x="8">10k</text>
      </g>
      <g
         id="g62"
         transform="matrix(0.62031982,-0.78434898,0.78434898,0.62031982,272.94072,-345.11355)"
         class="group-tick">
        <line
           y2="0"
           y1="0"
           x1="0"
           id="line64"
           x2="6" />
      </g>
      <g
         id="g66"
         transform="matrix(0.6668564,-0.74518625,0.74518625,0.6668564,293.41682,-327.88195)"
         class="group-tick">
        <line
           y2="0"
           y1="0"
           x1="0"
           id="line68"
           x2="6" />
      </g>
      <g
         id="g70"
         transform="matrix(0.71092603,-0.70326679,0.70326679,0.71092603,312.80745,-309.43739)"
         class="group-tick">
        <line
           y2="0"
           y1="0"
           x1="0"
           id="line72"
           x2="6" />
      </g>
      <g
         id="g74"
         transform="matrix(0.75236568,-0.65874569,0.65874569,0.75236568,331.0409,-289.8481)"
         class="group-tick">
        <line
           y2="0"
           y1="0"
           x1="0"
           id="line76"
           x2="6" />
      </g>
      <g
         id="g78"
         transform="matrix(0.79102205,-0.61178764,0.61178764,0.79102205,348.0497,-269.18656)"
         class="group-tick">
        <line
           y2="0"
           y1="0"
           x1="0"
           id="line80"
           x2="6" />
        <text
           id="text82"
           dy="0"
           x="8">15k</text>
      </g>
      <g
         id="g84"
         transform="matrix(0.82675214,-0.56256636,0.56256636,0.82675214,363.77094,-247.5292)"
         class="group-tick">
        <line
           y2="0"
           y1="0"
           x1="0"
           id="line86"
           x2="6" />
      </g>
      <g
         id="g88"
         transform="matrix(0.85942375,-0.51126393,0.51126393,0.85942375,378.14645,-224.95613)"
         class="group-tick">
        <line
           y2="0"
           y1="0"
           x1="0"
           id="line90"
           x2="6" />
      </g>
      <g
         id="g92"
         transform="matrix(0.88891604,-0.45807015,0.45807015,0.88891604,391.12306,-201.55087)"
         class="group-tick">
        <line
           y2="0"
           y1="0"
           x1="0"
           id="line94"
           x2="6" />
      </g>
      <g
         id="g96"
         transform="matrix(0.9151199,-0.4031818,0.4031818,0.9151199,402.65276,-177.39999)"
         class="group-tick">
        <line
           y2="0"
           y1="0"
           x1="0"
           id="line98"
           x2="6" />
      </g>
      <g
         id="g100"
         transform="matrix(0.93793839,-0.34680193,0.34680193,0.93793839,412.69289,-152.59285)"
         class="group-tick">
        <line
           y2="0"
           y1="0"
           x1="0"
           id="line102"
           x2="6" />
        <text
           id="text104"
           dy="0"
           x="8">20k</text>
      </g>
      <g
         id="g106"
         transform="matrix(0.95728709,-0.28913911,0.28913911,0.95728709,421.20632,-127.22121)"
         class="group-tick">
        <line
           y2="0"
           y1="0"
           x1="0"
           id="line108"
           x2="6" />
      </g>
      <g
         id="g110"
         transform="matrix(0.97309443,-0.23040665,0.23040665,0.97309443,428.16155,-101.37893)"
         class="group-tick">
        <line
           y2="0"
           y1="0"
           x1="0"
           id="line112"
           x2="6" />
      </g>
      <g
         id="g114"
         transform="matrix(0.98530193,-0.17082184,0.17082184,0.98530193,433.53285,-75.161609)"
         class="group-tick">
        <line
           y2="0"
           y1="0"
           x1="0"
           id="line116"
           x2="6" />
      </g>
      <g
         id="g118"
         transform="matrix(0.99386443,-0.11060509,0.11060509,0.99386443,437.30035,-48.666239)"
         class="group-tick">
        <line
           y2="0"
           y1="0"
           x1="0"
           id="line120"
           x2="6" />
      </g>
      <g
         id="g122"
         transform="matrix(0.99875026,-0.04997917,0.04997917,0.99875026,439.45011,-21.990834)"
         class="group-tick">
        <line
           y2="0"
           y1="0"
           x1="0"
           id="line124"
           x2="6" />
        <text
           id="text126"
           dy="0"
           x="8">25k</text>
      </g>
      <g
         id="g128"
         transform="matrix(0.99994134,0.01083164,-0.01083164,0.99994134,439.97419,4.7659222)"
         class="group-tick">
        <line
           y2="0"
           y1="0"
           x1="0"
           id="line130"
           x2="6" />
      </g>
      <g
         id="g132"
         transform="matrix(0.99743326,0.07160238,-0.07160238,0.99743326,438.87063,31.505048)"
         class="group-tick">
        <line
           y2="0"
           y1="0"
           x1="0"
           id="line134"
           x2="6" />
      </g>
      <g
         id="g136"
         transform="matrix(0.9912353,0.13210824,-0.13210824,0.9912353,436.14353,58.127625)"
         class="group-tick">
        <line
           y2="0"
           y1="0"
           x1="0"
           id="line138"
           x2="6" />
      </g>
      <g
         id="g140"
         transform="matrix(0.98137039,0.19212538,-0.19212538,0.98137039,431.80297,84.535166)"
         class="group-tick">
        <line
           y2="0"
           y1="0"
           x1="0"
           id="line142"
           x2="6" />
      </g>
    </g>
    <g
       id="g144">
      <path
         inkscape:connector-curvature="0"
         id="path146"
         style="fill:#ffdd89;stroke:#b39b60"
         d="M 422.663,122.29467 A 440,440 0 0 1 25.732551,439.2469 L 23.978059,409.29824 A 410,410 0 0 0 393.84507,113.9564 Z" />
      <g
         id="g148"
         transform="matrix(0.96059773,0.27794243,-0.27794243,0.96059773,422.663,122.29467)"
         class="group-tick">
        <line
           y2="0"
           y1="0"
           x1="0"
           id="line150"
           x2="6" />
        <text
           id="text152"
           dy="0"
           x="8">0k</text>
      </g>
      <g
         id="g154"
         transform="matrix(0.9419236,0.33582724,-0.33582724,0.9419236,414.44638,147.76398)"
         class="group-tick">
        <line
           y2="0"
           y1="0"
           x1="0"
           id="line156"
           x2="6" />
      </g>
      <g
         id="g158"
         transform="matrix(0.91976494,0.39246969,-0.39246969,0.91976494,404.69657,172.68666)"
         class="group-tick">
        <line
           y2="0"
           y1="0"
           x1="0"
           id="line160"
           x2="6" />
      </g>
      <g
         id="g162"
         transform="matrix(0.89420373,0.44766024,-0.44766024,0.89420373,393.44964,196.97051)"
         class="group-tick">
        <line
           y2="0"
           y1="0"
           x1="0"
           id="line164"
           x2="6" />
      </g>
      <g
         id="g166"
         transform="matrix(0.86533452,0.50119474,-0.50119474,0.86533452,380.74719,220.52569)"
         class="group-tick">
        <line
           y2="0"
           y1="0"
           x1="0"
           id="line168"
           x2="6" />
      </g>
      <g
         id="g170"
         transform="matrix(0.83326412,0.55287513,-0.55287513,0.83326412,366.63621,243.26506)"
         class="group-tick">
        <line
           y2="0"
           y1="0"
           x1="0"
           id="line172"
           x2="6" />
        <text
           id="text174"
           dy="0"
           x="8">5k</text>
      </g>
      <g
         id="g176"
         transform="matrix(0.79811116,0.60251023,-0.60251023,0.79811116,351.16891,265.1045)"
         class="group-tick">
        <line
           y2="0"
           y1="0"
           x1="0"
           id="line178"
           x2="6" />
      </g>
      <g
         id="g180"
         transform="matrix(0.76000569,0.64991641,-0.64991641,0.76000569,334.40251,285.96322)"
         class="group-tick">
        <line
           y2="0"
           y1="0"
           x1="0"
           id="line182"
           x2="6" />
      </g>
      <g
         id="g184"
         transform="matrix(0.71908868,0.69491832,-0.69491832,0.71908868,316.39902,305.76406)"
         class="group-tick">
        <line
           y2="0"
           y1="0"
           x1="0"
           id="line186"
           x2="6" />
      </g>
      <g
         id="g188"
         transform="matrix(0.67551149,0.73734946,-0.73734946,0.67551149,297.22506,324.43376)"
         class="group-tick">
        <line
           y2="0"
           y1="0"
           x1="0"
           id="line190"
           x2="6" />
      </g>
      <g
         id="g192"
         transform="matrix(0.62943533,0.77705287,-0.77705287,0.62943533,276.95155,341.90326)"
         class="group-tick">
        <line
           y2="0"
           y1="0"
           x1="0"
           id="line194"
           x2="6" />
        <text
           id="text196"
           dy="0"
           x="8">10k</text>
      </g>
      <g
         id="g198"
         transform="matrix(0.58103065,0.81388167,-0.81388167,0.58103065,255.65349,358.10794)"
         class="group-tick">
        <line
           y2="0"
           y1="0"
           x1="0"
           id="line200"
           x2="6" />
      </g>
      <g
         id="g202"
         transform="matrix(0.53047653,0.84769962,-0.84769962,0.53047653,233.40967,372.98783)"
         class="group-tick">
        <line
           y2="0"
           y1="0"
           x1="0"
           id="line204"
           x2="6" />
      </g>
      <g
         id="g206"
         transform="matrix(0.47795997,0.87838162,-0.87838162,0.47795997,210.30239,386.48791)"
         class="group-tick">
        <line
           y2="0"
           y1="0"
           x1="0"
           id="line208"
           x2="6" />
      </g>
      <g
         id="g210"
         transform="matrix(0.42367526,0.90581415,-0.90581415,0.42367526,186.41712,398.55823)"
         class="group-tick">
        <line
           y2="0"
           y1="0"
           x1="0"
           id="line212"
           x2="6" />
      </g>
      <g
         id="g214"
         transform="matrix(0.36782322,0.92989573,-0.92989573,0.36782322,161.84222,409.15412)"
         class="group-tick">
        <line
           y2="0"
           y1="0"
           x1="0"
           id="line216"
           x2="6" />
        <text
           id="text218"
           dy="0"
           x="8">15k</text>
      </g>
      <g
         id="g220"
         transform="matrix(0.31061047,0.95053729,-0.95053729,0.31061047,136.66861,418.23641)"
         class="group-tick">
        <line
           y2="0"
           y1="0"
           x1="0"
           id="line222"
           x2="6" />
      </g>
      <g
         id="g224"
         transform="matrix(0.25224865,0.96766245,-0.96766245,0.25224865,110.9894,425.77148)"
         class="group-tick">
        <line
           y2="0"
           y1="0"
           x1="0"
           id="line226"
           x2="6" />
      </g>
      <g
         id="g228"
         transform="matrix(0.19295366,0.98120787,-0.98120787,0.19295366,84.899611,431.73146)"
         class="group-tick">
        <line
           y2="0"
           y1="0"
           x1="0"
           id="line230"
           x2="6" />
      </g>
      <g
         id="g232"
         transform="matrix(0.13294487,0.99112343,-0.99112343,0.13294487,58.495744,436.09431)"
         class="group-tick">
        <line
           y2="0"
           y1="0"
           x1="0"
           id="line234"
           x2="6" />
      </g>
      <g
         id="g236"
         transform="matrix(0.07244427,0.99737246,-0.99737246,0.07244427,31.875478,438.84388)"
         class="group-tick">
        <line
           y2="0"
           y1="0"
           x1="0"
           id="line238"
           x2="6" />
        <text
           id="text240"
           dy="0"
           x="8">20k</text>
      </g>
    </g>
    <g
       id="g242">
      <path
         inkscape:connector-curvature="0"
         id="path244"
         style="fill:#957244;stroke:#685030"
         d="M 3.7471969,439.98404 A 440,440 0 0 1 -283.18436,-336.75899 l 19.30802,22.96084 A 410,410 0 0 0 3.4917062,409.98513 Z" />
      <g
         id="g246"
         transform="matrix(0.00851636,0.99996374,-0.99996374,0.00851636,3.7471969,439.98404)"
         class="group-tick">
        <line
           y2="0"
           y1="0"
           x1="0"
           id="line248"
           x2="6" />
        <text
           id="text250"
           dy="0"
           x="8">0k</text>
      </g>
      <g
         id="g252"
         transform="matrix(-0.05229153,0.99863186,-0.99863186,-0.05229153,-23.008275,439.39802)"
         class="group-tick">
        <line
           y2="0"
           y1="0"
           x1="0"
           id="line254"
           x2="6" />
      </g>
      <g
         id="g256"
         transform="matrix(-0.11290598,0.99360568,-0.99360568,-0.11290598,-49.67863,437.1865)"
         class="group-tick">
        <line
           y2="0"
           y1="0"
           x1="0"
           id="line258"
           x2="6" />
      </g>
      <g
         id="g260"
         transform="matrix(-0.17310274,0.98490377,-0.98490377,-0.17310274,-76.165205,433.35766)"
         class="group-tick">
        <line
           y2="0"
           y1="0"
           x1="0"
           id="line262"
           x2="6" />
      </g>
      <g
         id="g264"
         transform="matrix(-0.23265913,0.97255834,-0.97255834,-0.23265913,-102.37002,427.92567)"
         class="group-tick">
        <line
           y2="0"
           y1="0"
           x1="0"
           id="line266"
           x2="6" />
      </g>
      <g
         id="g268"
         transform="matrix(-0.29135483,0.95661506,-0.95661506,-0.29135483,-128.19612,420.91062)"
         class="group-tick">
        <line
           y2="0"
           y1="0"
           x1="0"
           id="line270"
           x2="6" />
        <text
           id="text272"
           style="text-anchor:end"
           transform="matrix(-1,0,0,-1,16,0)"
           dy="0"
           x="8">5k</text>
      </g>
      <g
         id="g274"
         transform="matrix(-0.3489727,0.93713289,-0.93713289,-0.3489727,-153.54799,412.33847)"
         class="group-tick">
        <line
           y2="0"
           y1="0"
           x1="0"
           id="line276"
           x2="6" />
      </g>
      <g
         id="g278"
         transform="matrix(-0.40529958,0.91418392,-0.91418392,-0.40529958,-178.33182,402.24093)"
         class="group-tick">
        <line
           y2="0"
           y1="0"
           x1="0"
           id="line280"
           x2="6" />
      </g>
      <g
         id="g282"
         transform="matrix(-0.46012712,0.88785305,-0.88785305,-0.46012712,-202.45593,390.65534)"
         class="group-tick">
        <line
           y2="0"
           y1="0"
           x1="0"
           id="line284"
           x2="6" />
      </g>
      <g
         id="g286"
         transform="matrix(-0.51325247,0.85823767,-0.85823767,-0.51325247,-225.83109,377.62458)"
         class="group-tick">
        <line
           y2="0"
           y1="0"
           x1="0"
           id="line288"
           x2="6" />
      </g>
      <g
         id="g290"
         transform="matrix(-0.5644791,0.82544736,-0.82544736,-0.5644791,-248.37081,363.19684)"
         class="group-tick">
        <line
           y2="0"
           y1="0"
           x1="0"
           id="line292"
           x2="6" />
        <text
           id="text294"
           style="text-anchor:end"
           transform="matrix(-1,0,0,-1,16,0)"
           dy="0"
           x="8">10k</text>
      </g>
      <g
         id="g296"
         transform="matrix(-0.61361752,0.7896034,-0.7896034,-0.61361752,-269.99171,347.4255)"
         class="group-tick">
        <line
           y2="0"
           y1="0"
           x1="0"
           id="line298"
           x2="6" />
      </g>
      <g
         id="g300"
         transform="matrix(-0.66048594,0.75083841,-0.75083841,-0.66048594,-290.61381,330.3689)"
         class="group-tick">
        <line
           y2="0"
           y1="0"
           x1="0"
           id="line302"
           x2="6" />
      </g>
      <g
         id="g304"
         transform="matrix(-0.70491098,0.70929579,-0.70929579,-0.70491098,-310.16083,312.09015)"
         class="group-tick">
        <line
           y2="0"
           y1="0"
           x1="0"
           id="line306"
           x2="6" />
      </g>
      <g
         id="g308"
         transform="matrix(-0.74672828,0.66512921,-0.66512921,-0.74672828,-328.56045,292.65685)"
         class="group-tick">
        <line
           y2="0"
           y1="0"
           x1="0"
           id="line310"
           x2="6" />
      </g>
      <g
         id="g312"
         transform="matrix(-0.78578316,0.61850208,-0.61850208,-0.78578316,-345.74459,272.14091)"
         class="group-tick">
        <line
           y2="0"
           y1="0"
           x1="0"
           id="line314"
           x2="6" />
        <text
           id="text316"
           style="text-anchor:end"
           transform="matrix(-1,0,0,-1,16,0)"
           dy="0"
           x="8">15k</text>
      </g>
      <g
         id="g318"
         transform="matrix(-0.82193114,0.56958687,-0.56958687,-0.82193114,-361.6497,250.61822)"
         class="group-tick">
        <line
           y2="0"
           y1="0"
           x1="0"
           id="line320"
           x2="6" />
      </g>
      <g
         id="g322"
         transform="matrix(-0.85503848,0.51856455,-0.51856455,-0.85503848,-376.21693,228.1684)"
         class="group-tick">
        <line
           y2="0"
           y1="0"
           x1="0"
           id="line324"
           x2="6" />
      </g>
      <g
         id="g326"
         transform="matrix(-0.88498272,0.46562387,-0.46562387,-0.88498272,-389.3924,204.8745)"
         class="group-tick">
        <line
           y2="0"
           y1="0"
           x1="0"
           id="line328"
           x2="6" />
      </g>
      <g
         id="g330"
         transform="matrix(-0.91165307,0.41096067,-0.41096067,-0.91165307,-401.12735,180.82269)"
         class="group-tick">
        <line
           y2="0"
           y1="0"
           x1="0"
           id="line332"
           x2="6" />
      </g>
      <g
         id="g334"
         transform="matrix(-0.93495089,0.35477717,-0.35477717,-0.93495089,-411.37839,156.10196)"
         class="group-tick">
        <line
           y2="0"
           y1="0"
           x1="0"
           id="line336"
           x2="6" />
        <text
           id="text338"
           style="text-anchor:end"
           transform="matrix(-1,0,0,-1,16,0)"
           dy="0"
           x="8">20k</text>
      </g>
      <g
         id="g340"
         transform="matrix(-0.95478996,0.29728122,-0.29728122,-0.95478996,-420.10758,130.80374)"
         class="group-tick">
        <line
           y2="0"
           y1="0"
           x1="0"
           id="line342"
           x2="6" />
      </g>
      <g
         id="g344"
         transform="matrix(-0.97109692,0.23868552,-0.23868552,-0.97109692,-427.28264,105.02163)"
         class="group-tick">
        <line
           y2="0"
           y1="0"
           x1="0"
           id="line346"
           x2="6" />
      </g>
      <g
         id="g348"
         transform="matrix(-0.98381142,0.17920683,-0.17920683,-0.98381142,-432.87703,78.851003)"
         class="group-tick">
        <line
           y2="0"
           y1="0"
           x1="0"
           id="line350"
           x2="6" />
      </g>
      <g
         id="g352"
         transform="matrix(-0.99288644,0.11906518,-0.11906518,-0.99288644,-436.87003,52.38868)"
         class="group-tick">
        <line
           y2="0"
           y1="0"
           x1="0"
           id="line354"
           x2="6" />
      </g>
      <g
         id="g356"
         transform="matrix(-0.9982884,0.05848307,-0.05848307,-0.9982884,-439.2469,25.732551)"
         class="group-tick">
        <line
           y2="0"
           y1="0"
           x1="0"
           id="line358"
           x2="6" />
        <text
           id="text360"
           style="text-anchor:end"
           transform="matrix(-1,0,0,-1,16,0)"
           dy="0"
           x="8">25k</text>
      </g>
      <g
         id="g362"
         transform="matrix(-0.99999732,-0.00231539,0.00231539,-0.99999732,-439.99882,-1.0187723)"
         class="group-tick">
        <line
           y2="0"
           y1="0"
           x1="0"
           id="line364"
           x2="6" />
      </g>
      <g
         id="g366"
         transform="matrix(-0.99800688,-0.06310529,0.06310529,-0.99800688,-439.12303,-27.766327)"
         class="group-tick">
        <line
           y2="0"
           y1="0"
           x1="0"
           id="line368"
           x2="6" />
      </g>
      <g
         id="g370"
         transform="matrix(-0.99232443,-0.12366173,0.12366173,-0.99232443,-436.62275,-54.411163)"
         class="group-tick">
        <line
           y2="0"
           y1="0"
           x1="0"
           id="line372"
           x2="6" />
      </g>
      <g
         id="g374"
         transform="matrix(-0.98297101,-0.18376071,0.18376071,-0.98297101,-432.50724,-80.854712)"
         class="group-tick">
        <line
           y2="0"
           y1="0"
           x1="0"
           id="line376"
           x2="6" />
      </g>
      <g
         id="g378"
         transform="matrix(-0.96998121,-0.24317988,0.24317988,-0.96998121,-426.79173,-106.99915)"
         class="group-tick">
        <line
           y2="0"
           y1="0"
           x1="0"
           id="line380"
           x2="6" />
        <text
           id="text382"
           style="text-anchor:end"
           transform="matrix(-1,0,0,-1,16,0)"
           dy="0"
           x="8">30k</text>
      </g>
      <g
         id="g384"
         transform="matrix(-0.95340309,-0.30169945,0.30169945,-0.95340309,-419.49736,-132.74776)"
         class="group-tick">
        <line
           y2="0"
           y1="0"
           x1="0"
           id="line386"
           x2="6" />
      </g>
      <g
         id="g388"
         transform="matrix(-0.93329797,-0.35910291,0.35910291,-0.93329797,-410.65111,-158.00528)"
         class="group-tick">
        <line
           y2="0"
           y1="0"
           x1="0"
           id="line390"
           x2="6" />
      </g>
      <g
         id="g392"
         transform="matrix(-0.90974024,-0.41517792,0.41517792,-0.90974024,-400.2857,-182.67828)"
         class="group-tick">
        <line
           y2="0"
           y1="0"
           x1="0"
           id="line394"
           x2="6" />
      </g>
      <g
         id="g396"
         transform="matrix(-0.88281703,-0.46971703,0.46971703,-0.88281703,-388.43949,-206.67549)"
         class="group-tick">
        <line
           y2="0"
           y1="0"
           x1="0"
           id="line398"
           x2="6" />
      </g>
      <g
         id="g400"
         transform="matrix(-0.85262796,-0.52251848,0.52251848,-0.85262796,-375.1563,-229.90813)"
         class="group-tick">
        <line
           y2="0"
           y1="0"
           x1="0"
           id="line402"
           x2="6" />
        <text
           id="text404"
           style="text-anchor:end"
           transform="matrix(-1,0,0,-1,16,0)"
           dy="0"
           x="8">35k</text>
      </g>
      <g
         id="g406"
         transform="matrix(-0.8192847,-0.57338694,0.57338694,-0.8192847,-360.48527,-252.29025)"
         class="group-tick">
        <line
           y2="0"
           y1="0"
           x1="0"
           id="line408"
           x2="6" />
      </g>
      <g
         id="g410"
         transform="matrix(-0.7829106,-0.62213423,0.62213423,-0.7829106,-344.48066,-273.73906)"
         class="group-tick">
        <line
           y2="0"
           y1="0"
           x1="0"
           id="line412"
           x2="6" />
      </g>
      <g
         id="g414"
         transform="matrix(-0.74364022,-0.66858001,0.66858001,-0.74364022,-327.2017,-294.1752)"
         class="group-tick">
        <line
           y2="0"
           y1="0"
           x1="0"
           id="line416"
           x2="6" />
      </g>
      <g
         id="g418"
         transform="matrix(-0.70161883,-0.71255246,0.71255246,-0.70161883,-308.71229,-313.52308)"
         class="group-tick">
        <line
           y2="0"
           y1="0"
           x1="0"
           id="line420"
           x2="6" />
      </g>
      <g
         id="g422"
         transform="matrix(-0.6570019,-0.75388892,0.75388892,-0.6570019,-289.08084,-331.71112)"
         class="group-tick">
        <line
           y2="0"
           y1="0"
           x1="0"
           id="line424"
           x2="6" />
        <text
           id="text426"
           style="text-anchor:end"
           transform="matrix(-1,0,0,-1,16,0)"
           dy="0"
           x="8">40k</text>
      </g>
    </g>
    <g
       id="g428">
      <path
         inkscape:connector-curvature="0"
         id="path430"
         style="fill:#f26223;stroke:#a94519"
         d="m -265.99952,-350.49145 a 440,440 0 0 1 244.008686,-88.95866 l 1.499375,29.9625 a 410,410 0 0 0 -227.371731,82.89331 z" />
      <g
         id="g432"
         transform="matrix(-0.60454437,-0.79657147,0.79657147,-0.60454437,-265.99952,-350.49145)"
         class="group-tick">
        <line
           y2="0"
           y1="0"
           x1="0"
           id="line434"
           x2="6" />
        <text
           id="text436"
           style="text-anchor:end"
           transform="matrix(-1,0,0,-1,16,0)"
           dy="0"
           x="8">0k</text>
      </g>
      <g
         id="g438"
         transform="matrix(-0.55499911,-0.83185094,0.83185094,-0.55499911,-244.19961,-366.01441)"
         class="group-tick">
        <line
           y2="0"
           y1="0"
           x1="0"
           id="line440"
           x2="6" />
      </g>
      <g
         id="g442"
         transform="matrix(-0.50340071,-0.86405308,0.86405308,-0.50340071,-221.49631,-380.18336)"
         class="group-tick">
        <line
           y2="0"
           y1="0"
           x1="0"
           id="line444"
           x2="6" />
      </g>
      <g
         id="g446"
         transform="matrix(-0.44994004,-0.89305877,0.89305877,-0.44994004,-197.97362,-392.94586)"
         class="group-tick">
        <line
           y2="0"
           y1="0"
           x1="0"
           id="line448"
           x2="6" />
      </g>
      <g
         id="g450"
         transform="matrix(-0.39481487,-0.9187607,0.9187607,-0.39481487,-173.71854,-404.25471)"
         class="group-tick">
        <line
           y2="0"
           y1="0"
           x1="0"
           id="line452"
           x2="6" />
      </g>
      <g
         id="g454"
         transform="matrix(-0.33822913,-0.94106379,0.94106379,-0.33822913,-148.82082,-414.06807)"
         class="group-tick">
        <line
           y2="0"
           y1="0"
           x1="0"
           id="line456"
           x2="6" />
        <text
           id="text458"
           style="text-anchor:end"
           transform="matrix(-1,0,0,-1,16,0)"
           dy="0"
           x="8">5k</text>
      </g>
      <g
         id="g460"
         transform="matrix(-0.28039216,-0.95988553,0.95988553,-0.28039216,-123.37255,-422.34963)"
         class="group-tick">
        <line
           y2="0"
           y1="0"
           x1="0"
           id="line462"
           x2="6" />
      </g>
      <g
         id="g464"
         transform="matrix(-0.22151791,-0.9751563,0.9751563,-0.22151791,-97.467882,-429.06877)"
         class="group-tick">
        <line
           y2="0"
           y1="0"
           x1="0"
           id="line466"
           x2="6" />
      </g>
      <g
         id="g468"
         transform="matrix(-0.16182419,-0.9868196,0.9868196,-0.16182419,-71.202643,-434.20063)"
         class="group-tick">
        <line
           y2="0"
           y1="0"
           x1="0"
           id="line470"
           x2="6" />
      </g>
      <g
         id="g472"
         transform="matrix(-0.10153182,-0.99483229,0.99483229,-0.10153182,-44.674,-437.72621)"
         class="group-tick">
        <line
           y2="0"
           y1="0"
           x1="0"
           id="line474"
           x2="6" />
      </g>
    </g>
    <path
       inkscape:connector-curvature="0"
       id="path478"
       style="fill:#000000;stroke:#000000"
       d="m 0,-410 a 410,410 0 0 1 272.94616,104.05819 Q 0,0 0,-410 Z" />
    <path
       inkscape:connector-curvature="0"
       id="path480"
       style="fill:#ffdd89;stroke:#b39b60"
       d="M 391.69304,-121.14687 A 410,410 0 0 1 409.32979,23.43337 Q 0,0 72.272146,403.5799 a 410,410 0 0 1 -48.294087,5.71834 Q 0,0 391.69304,-121.14687 Z" />
    <path
       inkscape:connector-curvature="0"
       id="path482"
       style="fill:#957244;stroke:#685030"
       d="m 272.94616,-305.94181 a 410,410 0 0 1 118.74688,184.79494 Q 0,0 -380.08899,-153.7282 a 410,410 0 0 1 116.21265,-160.06995 Q 0,0 272.94616,-305.94181 Z" />
    <path
       inkscape:connector-curvature="0"
       id="path484"
       style="fill:#f26223;stroke:#a94519"
       d="M 409.32979,23.43337 A 410,410 0 0 1 399.04831,94.129933 Q 0,0 -93.082772,-399.29387 a 410,410 0 0 1 24.766662,-4.97449 Q 0,0 409.32979,23.43337 Z" />
    <path
       inkscape:connector-curvature="0"
       id="path486"
       style="fill:#ffdd89;stroke:#b39b60"
       d="M 393.84507,113.9564 A 410,410 0 0 1 257.13712,319.34386 Q 0,0 393.84507,113.9564 Z" />
    <path
       inkscape:connector-curvature="0"
       id="path488"
       style="fill:#ffdd89;stroke:#b39b60"
       d="M 3.4917062,409.98513 A 410,410 0 0 1 -339.03851,230.5491 Q 0,0 122.14722,391.38224 A 410,410 0 0 1 72.272146,403.5799 Q 0,0 3.4917062,409.98513 Z" />
    <path
       inkscape:connector-curvature="0"
       id="path490"
       style="fill:#f26223;stroke:#a94519"
       d="m 257.13712,319.34386 a 410,410 0 0 1 -134.9899,72.03838 Q 0,0 -68.31611,-404.26836 a 410,410 0 0 1 24.455605,-3.37886 Q 0,0 257.13712,319.34386 Z" />
    <path
       inkscape:connector-curvature="0"
       id="path492"
       style="fill:#957244;stroke:#685030"
       d="M -339.03851,230.5491 A 410,410 0 0 1 -407.73968,42.992479 Q 0,0 -339.03851,230.5491 Z" />
    <path
       inkscape:connector-curvature="0"
       id="path494"
       style="fill:#f26223;stroke:#a94519"
       d="M -407.73968,42.992479 A 410,410 0 0 1 -380.08899,-153.7282 Q 0,0 -43.860505,-407.64722 a 410,410 0 0 1 23.369046,-1.84039 Q 0,0 -407.73968,42.992479 Z" />
    <path
       inkscape:connector-curvature="0"
       id="path496"
       style="fill:#f26223;stroke:#a94519"
       d="m -247.86319,-326.5943 a 410,410 0 0 1 154.780418,-72.69957 Q 0,0 -247.86319,-326.5943 Z" />
  </g>
</svg>
